<svg
                width="70"
                height="70"
                viewBox="0 0 70 70"
                xmlns="http://www.w3.org/2000/svg"
                fill="#fff"
              >
                <path
                  d="M4.10156 61.6602H16.4062V37.0508H20.5078V32.9492H12.3047V20.6445H16.9821L13.9059 8.33984H6.60187L3.5257 20.6445H8.20312V32.9492H0V37.0508H4.10156V61.6602ZM9.80437 12.4414H10.7034L11.7288 16.543H8.77898L9.80437 12.4414ZM12.3047 57.5586H8.20312V37.0508H12.3047V57.5586Z"
                ></path>
                <path
                  d="M45.2539 20.6445V8.33984H41.1523V12.4414H37.0508V8.33984H30.8984C25.2305 8.33984 20.5078 12.9246 20.5078 18.5938V20.6445H28.8477V24.7461H24.6094V61.6602H37.0508V24.7461H32.9492V20.6445H37.0508V16.543H41.1523V20.6445H45.2539ZM32.9492 57.5586H28.7109V28.8477H32.9492V57.5586ZM32.9492 16.543H24.9833C25.8684 14.1802 28.2201 12.4414 30.8984 12.4414H32.9492V16.543Z"
                ></path>
                <path
                  d="M70 18.5938C70 12.9258 65.2786 8.33984 59.6094 8.33984C53.9554 8.33984 49.3555 12.9397 49.3555 18.5938C49.3555 21.8308 50.9011 24.8742 53.457 26.7969V43.2031C50.9011 45.1258 49.3555 48.1693 49.3555 51.4062C49.3555 57.0603 53.9554 61.6602 59.6094 61.6602C65.2773 61.6602 70 57.0753 70 51.4062C70 48.2013 68.4023 45.1529 65.7617 43.1974V26.8026C68.4023 24.8471 70 21.7987 70 18.5938ZM65.8984 51.4062C65.8984 54.7412 63.0185 57.5586 59.6094 57.5586C56.217 57.5586 53.457 54.7987 53.457 51.4062C53.457 47.1513 57.3152 45.7049 57.5586 45.4835V24.5165C57.2988 24.2802 53.457 22.8598 53.457 18.5938C53.457 15.2013 56.217 12.4414 59.6094 12.4414C63.0185 12.4414 65.8984 15.2588 65.8984 18.5938C65.8984 22.7358 61.8987 24.3037 61.6602 24.5165V45.4833C61.9377 45.7311 65.8984 47.2254 65.8984 51.4062Z"
                ></path>
                <path
                  d="M61.6602 16.543H57.5586V20.6445H61.6602V16.543Z"
                ></path>
                <path
                  d="M61.6602 49.3555H57.5586V53.457H61.6602V49.3555Z"
                ></path>
              </svg>