 <svg
                width="70"
                height="70"
                viewBox="0 0 70 70"
                xmlns="http://www.w3.org/2000/svg"
                fill="#fff"
              >
                <path
                  d="M16.4062 22.6953H12.3047V26.7969H16.4062V22.6953Z"
                ></path>
                <path
                  d="M24.6094 22.6953H20.5078V26.7969H24.6094V22.6953Z"
                ></path>
                <path
                  d="M32.8125 22.6953H28.7109V26.7969H32.8125V22.6953Z"
                ></path>
                <path
                  d="M28.7109 61.6602C28.7109 56.7083 25.1824 52.5651 20.5078 51.6123V47.3047H31.1318L29.081 35H33.1644C37.3373 35 41.2669 33.4182 44.2694 30.539L51.7537 26.7969H61.5234V22.6953H70V18.5938H61.5234V14.4922H51.7537L44.2694 10.7501C41.2669 7.8709 37.3373 6.28906 33.1644 6.28906H0V35H3.6508L0 53.254V63.7109H28.7109V61.6602ZM26.2901 43.2031H20.5078V35H24.9229L26.2901 43.2031ZM57.4219 22.6953H53.3203V18.5938H57.4219V22.6953ZM49.2188 23.4786L45.1172 25.5294V15.7596L49.2188 17.8104V23.4786ZM16.4062 10.3906H28.7109V14.4922H16.4062V10.3906ZM4.10156 10.3906H12.3047V18.5938H32.8125V10.3906H33.1644C36.0816 10.3906 38.8393 11.4287 41.0156 13.3299V27.9591C38.8393 29.8603 36.0816 30.8984 33.1644 30.8984H4.10156V10.3906ZM4.10156 59.6094V55.5078H12.3047V51.4062H4.55232L5.37264 47.3047H12.3047V43.2031H6.19295L7.83357 35H16.4062V55.5078H18.457C21.1307 55.5078 23.4116 57.2221 24.258 59.6094H4.10156Z"
                ></path>
              </svg>