<svg
                width="70"
                height="70"
                viewBox="0 0 70 70"
                xmlns="http://www.w3.org/2000/svg"
                fill="#fff"
              >
                <path
                  d="M59.7068 49.4922C54.0528 49.4922 49.4529 54.0921 49.4529 59.7461V61.7969H57.6561V70H61.7576V61.7969H69.9608V59.7461C69.9608 54.0922 65.3608 49.4922 59.7068 49.4922ZM53.9059 57.6953C54.7523 55.3081 57.0332 53.5937 59.7068 53.5937C62.3805 53.5937 64.6614 55.3081 65.5078 57.6953H53.9059Z"
                ></path>
                <path
                  d="M58.3889 23.1145L55.4886 20.2143L58.389 17.3139L46.0225 4.94759C41.5008 0.425895 34.8101 -1.15676 28.738 0.867223L25.59 1.91654L30.8366 7.16312C33.2038 9.53027 33.1991 13.4318 30.8261 15.8602L29.4108 17.3085L32.2986 20.2028L0.0101013 52.5003L8.71088 61.2011L40.9892 28.9136L43.886 31.8169L46.788 28.9149L49.6882 31.8151L46.7879 34.7154L55.4886 43.4161L69.9899 28.9149L61.2891 20.2142L58.3889 23.1145ZM8.71047 55.4001L5.81026 52.4999L35.1953 23.1063L38.0923 26.0099L8.71047 55.4001ZM35.0335 17.137C37.6328 13.1406 37.1987 7.72503 33.7368 4.26291L33.5784 4.10445C37.0918 3.95693 40.5447 5.27025 43.1223 7.84767L52.5884 17.3138L43.8894 26.0129L35.0335 17.137ZM49.6881 26.0147L52.5884 23.1144L55.4886 26.0146L52.5883 28.9148L49.6881 26.0147ZM55.4886 37.6157L52.5884 34.7155L61.2892 26.0149L64.1894 28.9151L55.4886 37.6157Z"
                ></path>
              </svg>