<svg
                width="70"
                height="70"
                viewBox="0 0 70 70"
                xmlns="http://www.w3.org/2000/svg"
                fill="#fff"
              >
                <path
                  d="M2.4271 67.5724L3.03834 67.878C10.8502 71.784 20.1284 70.1625 26.1661 64.1247L35.8415 54.4494L30.0439 48.6519L47.403 31.2928C53.1401 32.7287 59.2299 31.061 63.4368 26.854L69.9994 20.2914L49.7081 0L43.1455 6.5626C38.9452 10.7628 37.2687 16.8496 38.707 22.5962L21.3476 39.9557L15.55 34.1582L5.87464 43.8335C-0.233053 49.9412 -1.74139 59.2356 2.12156 66.9615L2.4271 67.5724ZM21.0988 46.0019L29.6339 37.4667L32.5328 40.3656L23.9978 48.9006C22.3007 50.5975 20.1691 51.7156 17.8443 52.1553C18.2839 49.8305 19.402 47.6989 21.0988 46.0019ZM41.0118 26.0889L43.9106 28.9878L35.4315 37.4669L32.5327 34.568L41.0118 26.0889ZM64.202 20.2915L61.3031 23.1903L46.8093 8.69638L49.7081 5.7975L64.202 20.2915ZM44.1617 11.8463L58.1532 25.8378C55.113 27.7013 51.4149 28.2164 47.9035 27.1832L42.8165 22.0962C41.7833 18.5845 42.2982 14.8865 44.1617 11.8463ZM8.77339 46.7323L15.55 39.9557L18.4489 42.8544L18.2002 43.1031C15.1911 46.1121 13.5341 50.1296 13.5341 54.4157V56.4654H15.5839C19.8699 56.4654 23.8875 54.8084 26.8964 51.7994L27.1451 51.5507L30.044 54.4494L23.2674 61.226C18.5723 65.9211 11.5095 67.1995 5.49379 64.5059C2.80002 58.4901 4.07824 51.4275 8.77339 46.7323Z"
                ></path>
              </svg>