<svg
                width="70"
                height="70"
                viewBox="0 0 70 70"
                xmlns="http://www.w3.org/2000/svg"
                fill="#fff"
              >
                <path
                  d="M52.5815 2.90112L49.6821 5.80731L43.8748 0L40.972 2.90277L46.7826 8.71336L44.7385 10.7623V15.9365L36.9609 18.525L20.6524 34.8333L23.5553 37.7361L17.7497 43.5416L20.6526 46.4445L9.04135 58.0557L11.9441 60.9585L23.5553 49.3473L26.4582 52.2502L32.2638 46.4445L35.1667 49.3473L51.475 33.039L54.0634 25.2612H59.2377L61.2866 23.2171L67.0972 29.0277L70 26.1249L64.1928 20.3177L67.099 17.4184L52.5815 2.90112ZM26.4582 46.4447L23.5555 43.5419L26.4582 40.6391L29.361 43.5419L26.4582 46.4447ZM47.8861 30.8223L35.1665 43.5419L26.4581 34.8335L39.1778 22.1139L46.2364 19.7646L50.2354 23.7636L47.8861 30.8223ZM57.5401 21.1561H53.4334L48.8438 16.5666V12.46L52.585 8.71008L61.29 17.4151L57.5401 21.1561Z"
                ></path>
                <path
                  d="M13.8131 40.7241H9.7079V49.2081H13.8131V40.7241Z"
                ></path>
                <path
                  d="M29.2759 55.7764H20.7919V59.8815H29.2759V55.7764Z"
                ></path>
                <path
                  d="M12.7437 67.0967L21.4522 69.9993L22.7503 66.1046L14.0418 63.202L12.7437 67.0967Z"
                ></path>
                <path
                  d="M0.00124148 48.5468L2.90378 57.2554L6.79835 55.9573L3.89582 47.2488L0.00124148 48.5468Z"
                ></path>
                <path
                  d="M38.0694 29.0284L40.9722 31.9312L43.8749 29.0284L40.9722 26.1256L38.0694 29.0284Z"
                ></path>
                <path
                  d="M32.2638 34.8341L35.1665 37.7368L38.0693 34.8341L35.1666 31.9313L32.2638 34.8341Z"
                ></path>
              </svg>